<svg id="Layer_1" data-name="Layer 1" xmlns="http://www.w3.org/2000/svg" viewBox="0 0 106.5 29.5"><defs><style>.cls-1{fill:#fff;}</style></defs><title>matLogo</title><path class="cls-1" d="M98.24,0.69H81.72L73.46,15.09,81.72,29.5H98.24l8.26-14.41ZM97,27.11H83L76,15,83,2.87H97l7,12.12Z"/><path class="cls-1" d="M100.55,12.56s-0.32-1.08-.46-1.43a10.84,10.84,0,1,0-20.24,7.78,10.08,10.08,0,0,0,2.55,3.86L87,21c1.26-.48,1.72,0,1.72,0l-1.63-4.23A1.23,1.23,0,0,0,86,16l-2.48.13a0.75,0.75,0,0,0-.71.54l-0.17.49-1.45-5a1.27,1.27,0,0,1,.72-1.55l3-1.15L85.55,8l5.07-2a2.25,2.25,0,0,1,2.26.33Z"/><path class="cls-1" d="M100.83,14.61A11,11,0,0,1,93.9,25.13a10.85,10.85,0,0,1-10.35-1.35L89,21.66a1.69,1.69,0,0,1,1.73.17L88,14.7a0.94,0.94,0,0,0-1-.63l-2.11.1a1.13,1.13,0,0,0-1.21.58l-0.13.35-0.79-2.53a0.65,0.65,0,0,1,.44-0.8l3-1.22,0.57-1.39,4.15-1.59A1.69,1.69,0,0,1,92.56,8Z"/><path class="cls-1" d="M25.24,15.61H17.41a3.08,3.08,0,0,0-3.26,3.26v5.59c0,2.28,1.26,3.4,3.26,3.4h7.87a3.05,3.05,0,0,0,3.21-3.21V18.86A3,3,0,0,0,25.24,15.61Zm0.05,9H17.42v0h0V18.86h0V18.77h7.87v5.8Z"/><path class="cls-1" d="M40.65,15.61H32.82a3.08,3.08,0,0,0-3.26,3.26v5.59c0,2.28,1.26,3.4,3.26,3.4h7.87a3.05,3.05,0,0,0,3.21-3.21V18.86A3,3,0,0,0,40.65,15.61Zm0,8.94h0v0H32.74v-5.8h7.87v0.09h0v5.68Z"/><path class="cls-1" d="M25.91,9.77h-3l1.49-3.39Zm5.88,4.93L26.36,2.9H22.61L17.37,14.7h3.34l1-2.08H27l1.11,2.08h3.7Z"/><path class="cls-1" d="M67.33,2.9H59.81A3.34,3.34,0,0,0,56.23,6V11.4c0,2.19,1.65,3.27,3.58,3.27h7.56a2.94,2.94,0,0,0,3.09-3.09V6A2.89,2.89,0,0,0,67.33,2.9ZM67.1,12H59.79V6H67.1v6Z"/><polygon class="cls-1" points="0.33 15.61 0.33 18.86 5.63 18.86 5.63 27.85 8.89 27.85 8.89 18.86 13.74 18.86 13.74 15.61 0.33 15.61"/><polygon class="cls-1" points="45.12 15.61 48.37 15.61 48.37 24.54 56.01 24.54 56.01 27.85 45.12 27.85 45.12 15.61"/><path class="cls-1" d="M59.94,23.18h7v1.37H60V23.75H56.71s0,0.7,0,.7c0,2.28,1.26,3.4,3.26,3.4h7.17a3.05,3.05,0,0,0,3.21-3.21V22.73C70.35,21,68.77,20,67,20H60V18.86h7v0.65l3.4,0V18.86a3,3,0,0,0-3.26-3.26H60a3.08,3.08,0,0,0-3.26,3.26V20.4A3,3,0,0,0,59.94,23.18Z"/><polygon class="cls-1" points="0.6 2.9 0.6 14.7 3.99 14.7 3.99 7.51 7.56 14.7 10.09 14.7 13.66 7.42 13.66 14.7 17.09 14.7 17.09 2.9 12.08 2.9 8.83 9.9 5.39 2.9 0.6 2.9"/><polygon class="cls-1" points="28.73 2.9 28.73 5.97 33.72 5.97 33.72 14.7 36.98 14.7 36.98 5.97 42.15 5.97 42.15 2.9 28.73 2.9"/><path class="cls-1" d="M55.48,10.13v1.45a2.94,2.94,0,0,1-3.09,3.09H45.94c-1.92,0-3.58-1.07-3.58-3.27V6A3.34,3.34,0,0,1,45.94,2.9h6.41A2.89,2.89,0,0,1,55.48,6s0,1.7,0,1.7H52.14s0-1.7,0-1.7H45.94V12h6.18V10.13h3.36Z"/></svg>